<svg width="610" height="508" viewBox="0 0 610 508" fill="none" xmlns="http://www.w3.org/2000/svg">
<g clip-path="url(#clip0)">
<path opacity="0.1" d="M386 89.6967C358.41 113.214 322.622 111.692 291.262 99.4546C259.901 87.2169 231.093 65.437 200.538 49.9527C174.922 36.9722 148.041 28.4484 120.833 24.6567C81.8896 19.2297 38.4009 25.8547 11.2697 63.8556C-18.9457 106.193 -16.6251 182.555 16.0421 221.394C32.6681 241.161 54.4363 250.865 73.4186 266.32C92.4009 281.774 109.981 307.388 108.365 337.182C106.867 364.736 89.4658 385.923 71.4559 399.203C57.5383 409.464 40.3994 420.672 38.7231 441.93C37.1005 462.494 51.5132 478.613 65.2756 487.778C110.172 517.675 165.496 517.387 210.238 487.023C226.19 476.187 240.841 461.775 257.574 453.341C301.51 431.178 349.927 453.485 396.452 461.65C435.824 468.556 476.205 464.974 514.569 451.179C537.608 442.895 560.736 430.214 576.921 406.637C588.595 389.625 595.867 368.091 602.692 346.826C609.97 324.156 616.967 301.322 623.685 278.324C627.711 264.517 631.678 250.446 632.722 235.68C634.608 208.917 626.662 182.459 615.84 159.876C590.147 106.247 546.873 68.5399 500.007 58.9618C453.142 49.3836 403.563 68.0906 367.215 109.027" fill="#27BBB1"/>
<path d="M148.486 132H62.4123C58.7363 132 55.7564 134.985 55.7564 138.667V306.627C55.7564 310.309 58.7363 313.293 62.4123 313.293H148.486C152.162 313.293 155.142 310.309 155.142 306.627V138.667C155.142 134.985 152.162 132 148.486 132Z" fill="url(#paint0_linear)"/>
<path d="M146.197 134.98H64.702C61.026 134.98 58.0461 137.965 58.0461 141.647V302.413C58.0461 306.095 61.026 309.08 64.702 309.08H146.197C149.873 309.08 152.853 306.095 152.853 302.413V141.647C152.853 137.965 149.873 134.98 146.197 134.98Z" fill="white"/>
<path d="M142.419 146.962L69.0175 147.065L69.215 288.744L142.616 288.642L142.419 146.962Z" fill="#E6E6E6"/>
<path d="M105.932 304.906C109.163 304.902 111.779 302.209 111.774 298.891C111.769 295.574 109.146 292.888 105.915 292.893C102.684 292.897 100.068 295.59 100.073 298.908C100.078 302.225 102.701 304.911 105.932 304.906Z" fill="#DBDBDB"/>
<path d="M94.5958 141.616C95.2428 141.615 95.7665 141.077 95.7656 140.414C95.7646 139.751 95.2394 139.215 94.5925 139.216C93.9455 139.216 93.4218 139.754 93.4227 140.417C93.4236 141.08 93.9488 141.616 94.5958 141.616Z" fill="#DBDBDB"/>
<path d="M117.336 139.484L100.523 139.507C100.156 139.508 99.8579 139.807 99.8585 140.175L99.8591 140.642C99.8596 141.01 100.158 141.308 100.526 141.307L117.338 141.284C117.706 141.283 118.004 140.984 118.003 140.616L118.002 140.149C118.002 139.781 117.703 139.483 117.336 139.484Z" fill="#DBDBDB"/>
<path d="M126.595 229.173H85.036V272.88H126.595V229.173Z" fill="url(#paint1_linear)"/>
<path d="M124.792 231.073H86.8463V270.98H124.792V231.073Z" fill="#27BBB1"/>
<path opacity="0.5" d="M108.691 249.16V248.407H110.688V244.547C111.293 243.627 111.641 242.562 111.697 241.462C111.753 240.362 111.515 239.267 111.006 238.291C110.498 237.314 109.739 236.491 108.806 235.907C107.874 235.323 106.803 235 105.704 234.97C104.604 234.94 103.517 235.204 102.554 235.736C101.592 236.268 100.788 237.048 100.228 237.996C99.667 238.943 99.3692 240.023 99.3652 241.125C99.3612 242.226 99.6511 243.309 100.205 244.26V248.407H102.408V249.293C99.7096 250.039 97.3297 251.65 95.6334 253.88C93.937 256.11 93.0177 258.836 93.0165 261.64V272.88H118.635V261.64C118.634 258.739 117.649 255.925 115.843 253.658C114.036 251.391 111.515 249.805 108.691 249.16V249.16Z" fill="url(#paint2_linear)"/>
<path d="M110.242 241.333H100.757V248.933H110.242V241.333Z" fill="#F55F44"/>
<path d="M102.807 249.333H108.797C111.067 249.333 113.245 250.237 114.85 251.844C116.455 253.452 117.357 255.633 117.357 257.907V271.093H94.2475V257.893C94.251 255.622 95.1544 253.445 96.7592 251.84C98.364 250.235 100.539 249.333 102.807 249.333V249.333Z" fill="#EE8E9E"/>
<path d="M106.315 245.533H104.844C103.686 245.533 102.747 246.474 102.747 247.633V250.527C102.747 251.686 103.686 252.627 104.844 252.627H106.315C107.473 252.627 108.412 251.686 108.412 250.527V247.633C108.412 246.474 107.473 245.533 106.315 245.533Z" fill="#FDA57D"/>
<path d="M104.498 252.413L105.556 253.96L106.668 252.413H104.498Z" fill="#FDA57D"/>
<path opacity="0.1" d="M98.6008 258C98.6008 258 97.4759 269.213 98.2014 269.94Z" fill="black"/>
<path opacity="0.1" d="M112.511 258C112.511 258 113.636 269.213 112.911 269.94Z" fill="black"/>
<path opacity="0.05" d="M105.582 248.98C106.589 248.981 107.568 248.658 108.378 248.06C108.272 247.393 107.932 246.786 107.42 246.348C106.908 245.909 106.256 245.668 105.582 245.667C104.909 245.668 104.257 245.909 103.745 246.348C103.233 246.786 102.893 247.393 102.787 248.06C103.596 248.658 104.576 248.981 105.582 248.98Z" fill="black"/>
<path d="M105.582 247.96C108.666 247.96 111.167 245.456 111.167 242.367C111.167 239.278 108.666 236.773 105.582 236.773C102.498 236.773 99.998 239.278 99.998 242.367C99.998 245.456 102.498 247.96 105.582 247.96Z" fill="#F55F44"/>
<path d="M105.582 248.84C108.189 248.84 110.301 246.724 110.301 244.113C110.301 241.503 108.189 239.387 105.582 239.387C102.976 239.387 100.863 241.503 100.863 244.113C100.863 246.724 102.976 248.84 105.582 248.84Z" fill="#FDA57D"/>
<path d="M100.85 244.407C101.034 244.407 101.183 244.138 101.183 243.807C101.183 243.475 101.034 243.207 100.85 243.207C100.667 243.207 100.518 243.475 100.518 243.807C100.518 244.138 100.667 244.407 100.85 244.407Z" fill="#FDA57D"/>
<path d="M110.322 244.407C110.506 244.407 110.655 244.138 110.655 243.807C110.655 243.475 110.506 243.207 110.322 243.207C110.138 243.207 109.989 243.475 109.989 243.807C109.989 244.138 110.138 244.407 110.322 244.407Z" fill="#FDA57D"/>
<path d="M137.844 156.173H73.7871V158.96H137.844V156.173Z" fill="white"/>
<path d="M137.844 161.747H73.7871V164.533H137.844V161.747Z" fill="white"/>
<path d="M109.995 167.327H73.7871V170.113H109.995V167.327Z" fill="white"/>
<path d="M126.702 172.907H73.7871V175.693H126.702V172.907Z" fill="white"/>
<path d="M118.348 178.487H73.7871V181.273H118.348V178.487Z" fill="white"/>
<path d="M137.844 184.067H73.7871V186.853H137.844V184.067Z" fill="white"/>
<path d="M132.279 192.433H76.5761V214.747H132.279V192.433Z" fill="white"/>
<path d="M469.554 304.753C469.554 304.753 478.872 368.88 533.577 390.18L422.889 390.333L312.201 390.487C366.82 369.033 375.998 304.88 375.998 304.88L469.554 304.753Z" fill="#E0E0E0"/>
<path d="M534.564 390.167L311.099 390.479L311.118 404.026L534.583 403.713L534.564 390.167Z" fill="url(#paint3_linear)"/>
<path d="M533.592 390.168L312.217 390.478L312.232 400.931L533.607 400.621L533.592 390.168Z" fill="#F5F5F5"/>
<path d="M602.519 74L242.501 74.5C240.543 74.5472 238.683 75.3715 237.332 76.7917C235.98 78.2119 235.246 80.1117 235.293 82.0733L235.572 292.46V299.467C235.572 315.467 247.972 328.393 263.228 328.373L582.451 327.933C597.7 327.933 610.047 314.94 610.027 298.953V291.953L609.747 81.5667C609.769 80.5943 609.6 79.6271 609.248 78.7203C608.897 77.8136 608.37 76.9852 607.699 76.2824C607.028 75.5796 606.225 75.0163 605.336 74.6247C604.447 74.2331 603.49 74.0208 602.519 74V74Z" fill="url(#paint4_linear)"/>
<path d="M246.774 81.0466H597.866C599.764 81.0466 601.584 81.8017 602.926 83.1457C604.267 84.4897 605.021 86.3126 605.021 88.2133V288.427H239.613V88.2133C239.613 87.2716 239.798 86.3391 240.158 85.4692C240.518 84.5992 241.045 83.8089 241.711 83.1433C242.376 82.4777 243.165 81.95 244.034 81.5902C244.903 81.2305 245.834 81.0457 246.774 81.0466V81.0466Z" fill="white"/>
<path d="M580.002 321.707L265.604 322.14C262.254 322.144 258.937 321.488 255.841 320.208C252.745 318.928 249.93 317.05 247.559 314.681C245.187 312.312 243.305 309.498 242.019 306.4C240.733 303.303 240.069 299.981 240.065 296.627V287.96L605.474 287.453V296.12C605.479 299.475 604.824 302.799 603.547 305.901C602.27 309.003 600.395 311.822 598.03 314.198C595.664 316.574 592.855 318.46 589.761 319.749C586.668 321.037 583.352 321.702 580.002 321.707V321.707Z" fill="#F5F5F5"/>
<path d="M588.335 97.8467H257.663V265.26H588.335V97.8467Z" fill="#E6E6E6"/>
<path d="M559.867 108.887H501.336V170.447H559.867V108.887Z" fill="url(#paint5_linear)"/>
<path d="M557.325 111.567H503.879V167.773H557.325V111.567Z" fill="#27BBB1"/>
<path opacity="0.5" d="M534.256 136.56L533.59 136.32L533.55 136.38H533.51V134.567C533.51 134.343 533.493 134.12 533.457 133.9C534.535 133.105 535.361 132.015 535.833 130.76C536.765 129.55 537.34 128.102 537.493 126.581C537.645 125.06 537.369 123.527 536.696 122.155C536.023 120.783 534.98 119.628 533.684 118.82C532.389 118.012 530.893 117.583 529.367 117.583C527.841 117.583 526.345 118.012 525.05 118.82C523.754 119.628 522.711 120.783 522.038 122.155C521.365 123.527 521.089 125.06 521.241 126.581C521.394 128.102 521.969 129.55 522.901 130.76C523.373 132.015 524.199 133.105 525.277 133.9C525.241 134.12 525.224 134.343 525.224 134.567V136.567C521.652 137.554 518.503 139.688 516.258 142.641C514.013 145.593 512.798 149.202 512.797 152.913V167.787H546.609V152.893C546.61 149.194 545.404 145.596 543.174 142.647C540.943 139.698 537.812 137.56 534.256 136.56V136.56Z" fill="url(#paint6_linear)"/>
<path d="M528.678 136.193H530.741C534.789 136.193 538.671 137.804 541.533 140.671C544.395 143.538 546.003 147.426 546.003 151.48V166.813H513.389V151.48C513.389 149.47 513.785 147.48 514.554 145.624C515.322 143.767 516.449 142.081 517.869 140.661C519.289 139.241 520.975 138.116 522.829 137.349C524.684 136.583 526.672 136.19 528.678 136.193Z" fill="#3E80BD"/>
<path d="M529.63 130.867H529.131C527.065 130.867 525.39 132.544 525.39 134.613V137.113C525.39 139.183 527.065 140.86 529.131 140.86H529.63C531.696 140.86 533.371 139.183 533.371 137.113V134.613C533.371 132.544 531.696 130.867 529.63 130.867Z" fill="#FDA57D"/>
<path opacity="0.05" d="M522.621 137.96L525.297 143.707L527.953 141.047L525.297 136.96L522.621 137.96Z" fill="black"/>
<path d="M522.715 137.68L525.377 143.427L528.039 140.76L525.377 136.68L524.153 137.053C524.032 137.09 523.914 137.135 523.8 137.187L522.715 137.68Z" fill="white"/>
<path opacity="0.05" d="M536.146 137.68L533.464 143.707L530.801 141.047L533.537 136.747L536.146 137.68Z" fill="black"/>
<path d="M536.053 137.4L533.391 143.4L530.729 140.733L533.464 136.433L533.963 136.58C534.505 136.735 535.036 136.924 535.554 137.147L536.053 137.4Z" fill="white"/>
<path d="M527.846 140.553L529.337 142.727L530.908 140.553H527.846Z" fill="#FDA57D"/>
<path opacity="0.1" d="M519.539 148.427C519.539 148.427 517.955 164.22 518.98 165.247Z" fill="black"/>
<path opacity="0.1" d="M539.134 148.427C539.134 148.427 540.719 164.22 539.694 165.247Z" fill="black"/>
<path opacity="0.05" d="M529.377 135.713C530.794 135.714 532.175 135.26 533.317 134.42C533.167 133.481 532.688 132.627 531.966 132.01C531.244 131.393 530.326 131.054 529.377 131.053V131.053C528.428 131.054 527.51 131.393 526.788 132.01C526.066 132.627 525.587 133.481 525.437 134.42C526.579 135.26 527.96 135.714 529.377 135.713V135.713Z" fill="black"/>
<path d="M529.377 134.273C533.719 134.273 537.238 130.748 537.238 126.4C537.238 122.052 533.719 118.527 529.377 118.527C525.036 118.527 521.517 122.052 521.517 126.4C521.517 130.748 525.036 134.273 529.377 134.273Z" fill="black"/>
<path d="M529.377 135.527C533.049 135.527 536.026 132.545 536.026 128.867C536.026 125.188 533.049 122.207 529.377 122.207C525.705 122.207 522.728 125.188 522.728 128.867C522.728 132.545 525.705 135.527 529.377 135.527Z" fill="#FDA57D"/>
<path opacity="0.05" d="M524.019 122.267L525.696 124.32C525.696 124.32 533.064 124.987 533.903 123.293C534.742 121.6 529.051 120.393 529.051 120.393L524.019 122.267Z" fill="black"/>
<path d="M524.019 122.08L525.696 124.133C525.696 124.133 533.064 124.8 533.903 123.107C534.742 121.413 529.051 120.207 529.051 120.207L524.019 122.08Z" fill="black"/>
<path d="M522.715 129.273C522.972 129.273 523.181 128.897 523.181 128.433C523.181 127.969 522.972 127.593 522.715 127.593C522.457 127.593 522.249 127.969 522.249 128.433C522.249 128.897 522.457 129.273 522.715 129.273Z" fill="#FDA57D"/>
<path d="M536.053 129.273C536.31 129.273 536.519 128.897 536.519 128.433C536.519 127.969 536.31 127.593 536.053 127.593C535.795 127.593 535.587 127.969 535.587 128.433C535.587 128.897 535.795 129.273 536.053 129.273Z" fill="#FDA57D"/>
<path d="M560.207 182.733H501.675V244.293H560.207V182.733Z" fill="url(#paint7_linear)"/>
<path d="M557.664 185.407H504.218V241.613H557.664V185.407Z" fill="#27BBB1"/>
<path opacity="0.5" d="M534.981 210.733V208.667C534.981 208.567 534.981 208.46 534.981 208.36C536.113 207.511 536.977 206.354 537.471 205.027C538.289 203.963 538.851 202.724 539.112 201.407C539.373 200.09 539.326 198.73 538.974 197.434C538.623 196.138 537.977 194.942 537.087 193.937C536.197 192.933 535.086 192.149 533.843 191.647C533.938 191.224 533.94 190.785 533.847 190.362C533.754 189.939 533.57 189.541 533.307 189.197C533.044 188.853 532.708 188.571 532.324 188.371C531.941 188.171 531.518 188.057 531.085 188.039C530.653 188.021 530.222 188.098 529.823 188.264C529.423 188.431 529.065 188.684 528.774 189.004C528.483 189.325 528.266 189.706 528.138 190.12C528.009 190.534 527.974 190.971 528.033 191.4C526.691 191.814 525.469 192.547 524.472 193.536C523.475 194.526 522.733 195.743 522.308 197.084C521.884 198.424 521.79 199.847 522.034 201.232C522.279 202.616 522.855 203.921 523.713 205.033C524.206 206.361 525.07 207.518 526.202 208.367C526.202 208.467 526.202 208.567 526.202 208.673V210.86C522.486 211.574 519.133 213.561 516.72 216.48C514.307 219.4 512.984 223.07 512.977 226.86V244.4H548.985V226.887C548.984 222.956 547.567 219.159 544.994 216.191C542.422 213.224 538.866 211.286 534.981 210.733V210.733Z" fill="url(#paint8_linear)"/>
<path d="M529.91 211.107H531.973C533.977 211.107 535.962 211.502 537.813 212.27C539.665 213.038 541.348 214.164 542.765 215.584C544.182 217.003 545.306 218.689 546.073 220.543C546.84 222.398 547.235 224.386 547.235 226.393V241.727H514.621V226.393C514.621 222.339 516.229 218.451 519.091 215.584C521.953 212.717 525.835 211.107 529.883 211.107H529.91Z" fill="white"/>
<path d="M530.855 205.78H530.356C528.29 205.78 526.615 207.457 526.615 209.527V212.027C526.615 214.096 528.29 215.773 530.356 215.773H530.855C532.921 215.773 534.596 214.096 534.596 212.027V209.527C534.596 207.457 532.921 205.78 530.855 205.78Z" fill="#FDB797"/>
<path d="M529.077 215.467L530.568 217.64L532.133 215.467H529.077Z" fill="#FDB797"/>
<path opacity="0.1" d="M520.771 223.333C520.771 223.333 519.187 239.127 520.212 240.153Z" fill="black"/>
<path opacity="0.1" d="M540.366 223.333C540.366 223.333 541.95 239.127 540.925 240.153Z" fill="black"/>
<path opacity="0.05" d="M530.635 210.627C532.053 210.627 533.433 210.174 534.576 209.333C534.425 208.395 533.946 207.54 533.224 206.923C532.502 206.307 531.584 205.967 530.635 205.967V205.967C529.677 205.955 528.746 206.288 528.013 206.906C527.28 207.524 526.793 208.386 526.642 209.333C527.799 210.185 529.2 210.638 530.635 210.627V210.627Z" fill="black"/>
<path d="M530.608 209.187C534.949 209.187 538.469 205.662 538.469 201.313C538.469 196.965 534.949 193.44 530.608 193.44C526.267 193.44 522.747 196.965 522.747 201.313C522.747 205.662 526.267 209.187 530.608 209.187Z" fill="#FDD835"/>
<path d="M530.608 210.44C534.281 210.44 537.258 207.458 537.258 203.78C537.258 200.102 534.281 197.12 530.608 197.12C526.936 197.12 523.959 200.102 523.959 203.78C523.959 207.458 526.936 210.44 530.608 210.44Z" fill="#FDB797"/>
<path d="M523.939 204.187C524.196 204.187 524.405 203.811 524.405 203.347C524.405 202.883 524.196 202.507 523.939 202.507C523.682 202.507 523.473 202.883 523.473 203.347C523.473 203.811 523.682 204.187 523.939 204.187Z" fill="#FDB797"/>
<path d="M537.284 204.187C537.541 204.187 537.75 203.811 537.75 203.347C537.75 202.883 537.541 202.507 537.284 202.507C537.027 202.507 536.818 202.883 536.818 203.347C536.818 203.811 537.027 204.187 537.284 204.187Z" fill="#FDB797"/>
<path d="M530.941 196.113C532.416 196.113 533.611 194.916 533.611 193.44C533.611 191.964 532.416 190.767 530.941 190.767C529.467 190.767 528.272 191.964 528.272 193.44C528.272 194.916 529.467 196.113 530.941 196.113Z" fill="#FDD835"/>
<path d="M525.596 196.113C525.596 196.113 528.259 201.447 536.286 198.78L533.623 196.113H525.596Z" fill="#FDD835"/>
<path d="M431.296 118.853H284.214V125.26H431.296V118.853Z" fill="white"/>
<path d="M431.296 131.66H284.214V138.067H431.296V131.66Z" fill="white"/>
<path d="M367.346 144.473H284.214V150.88H367.346V144.473Z" fill="white"/>
<path d="M405.717 157.28H284.214V163.687H405.717V157.28Z" fill="white"/>
<path d="M386.528 170.093H284.214V176.5H386.528V170.093Z" fill="white"/>
<path d="M431.296 182.9H284.214V189.307H431.296V182.9Z" fill="white"/>
<path d="M418.503 202.12H290.61V253.36H418.503V202.12Z" fill="white"/>
<path d="M92.3703 407.087H22.0241V22.7733H437.692V54.8" stroke="#27BBB1" stroke-width="2" stroke-miterlimit="10" stroke-dasharray="12 12"/>
<path opacity="0.5" d="M24.1609 48.4C37.5046 48.4 48.3218 37.5653 48.3218 24.2C48.3218 10.8347 37.5046 0 24.1609 0C10.8172 0 0 10.8347 0 24.2C0 37.5653 10.8172 48.4 24.1609 48.4Z" fill="url(#paint9_linear)"/>
<path d="M282.403 221.353L120.784 221.579C114.473 221.587 109.363 226.719 109.372 233.041L109.739 496.574C109.748 502.896 114.872 508.014 121.184 508.005L282.802 507.779C289.114 507.77 294.223 502.638 294.214 496.316L293.847 232.783C293.838 226.461 288.714 221.344 282.403 221.353Z" fill="url(#paint10_linear)"/>
<path d="M281.608 243.234L122.299 243.457L122.634 483.69L281.943 483.467L281.608 243.234Z" fill="url(#paint11_linear)"/>
<path d="M279.787 225.683L123.413 225.902C118.752 225.908 114.979 229.698 114.985 234.367L115.343 490.693C115.349 495.362 119.133 499.141 123.794 499.135L280.168 498.916C284.829 498.909 288.602 495.119 288.596 490.451L288.238 234.124C288.232 229.456 284.448 225.676 279.787 225.683Z" fill="white"/>
<path d="M276.748 246.567L127.13 246.776L127.449 475.95L277.067 475.74L276.748 246.567Z" fill="#E6E6E6"/>
<path d="M201.934 493.966C205.338 493.966 208.097 491.134 208.097 487.64C208.097 484.146 205.338 481.313 201.934 481.313C198.53 481.313 195.77 484.146 195.77 487.64C195.77 491.134 198.53 493.966 201.934 493.966Z" fill="#DBDBDB"/>
<path d="M176.039 238.902C177.175 238.9 178.095 237.956 178.093 236.792C178.092 235.629 177.169 234.687 176.034 234.688C174.898 234.69 173.978 235.634 173.98 236.798C173.981 237.961 174.904 238.903 176.039 238.902Z" fill="#DBDBDB"/>
<path d="M212.522 235.477L186.817 235.513C186.538 235.514 186.312 235.741 186.312 236.021L186.313 237.114C186.314 237.394 186.541 237.62 186.82 237.62L212.525 237.584C212.805 237.584 213.031 237.356 213.03 237.077L213.029 235.983C213.028 235.703 212.802 235.477 212.522 235.477Z" fill="#DBDBDB"/>
<path d="M259.727 387.867H201.195V449.427H259.727V387.867Z" fill="url(#paint12_linear)"/>
<path d="M257.184 390.547H203.737V446.753H257.184V390.547Z" fill="#27BBB1"/>
<path opacity="0.5" d="M235.007 415.547L234.341 415.307L234.301 415.367H234.261V413.553C234.261 413.33 234.244 413.107 234.208 412.887C235.286 412.092 236.112 411.001 236.584 409.747C237.516 408.536 238.091 407.089 238.244 405.568C238.397 404.047 238.121 402.514 237.447 401.142C236.774 399.77 235.731 398.615 234.435 397.806C233.14 396.998 231.644 396.57 230.118 396.57C228.592 396.57 227.096 396.998 225.801 397.806C224.506 398.615 223.462 399.77 222.789 401.142C222.116 402.514 221.84 404.047 221.992 405.568C222.145 407.089 222.72 408.536 223.652 409.747C224.124 411.001 224.95 412.092 226.028 412.887C225.993 413.107 225.975 413.33 225.975 413.553V415.553C222.403 416.541 219.254 418.675 217.009 421.627C214.764 424.58 213.549 428.189 213.548 431.9V446.773H247.393V431.873C247.391 428.171 246.179 424.571 243.943 421.623C241.706 418.675 238.568 416.541 235.007 415.547V415.547Z" fill="url(#paint13_linear)"/>
<path d="M229.429 415.173H231.493C235.54 415.173 239.422 416.784 242.284 419.651C245.147 422.517 246.755 426.406 246.755 430.46V445.793H214.141V430.46C214.141 428.45 214.536 426.46 215.305 424.604C216.074 422.747 217.2 421.061 218.62 419.641C220.04 418.221 221.726 417.096 223.58 416.329C225.435 415.563 227.423 415.17 229.429 415.173V415.173Z" fill="#4D4981"/>
<path d="M230.381 409.847H229.882C227.816 409.847 226.141 411.524 226.141 413.593V416.093C226.141 418.163 227.816 419.84 229.882 419.84H230.381C232.447 419.84 234.121 418.163 234.121 416.093V413.593C234.121 411.524 232.447 409.847 230.381 409.847Z" fill="#BE7C5E"/>
<path d="M228.597 419.533L230.087 421.707L231.658 419.533H228.597Z" fill="#BE7C5E"/>
<path opacity="0.1" d="M220.291 427.407C220.291 427.407 218.706 443.2 219.731 444.227Z" fill="black"/>
<path opacity="0.1" d="M239.885 427.407C239.885 427.407 241.469 443.2 240.444 444.227Z" fill="black"/>
<path opacity="0.05" d="M230.128 414.667C231.546 414.667 232.926 414.214 234.068 413.373C233.918 412.435 233.439 411.58 232.717 410.963C231.995 410.347 231.077 410.007 230.128 410.007V410.007C229.179 410.007 228.261 410.347 227.539 410.963C226.817 411.58 226.338 412.435 226.188 413.373C227.33 414.214 228.711 414.667 230.128 414.667V414.667Z" fill="black"/>
<path d="M230.128 413.253C234.469 413.253 237.988 409.728 237.988 405.38C237.988 401.032 234.469 397.507 230.128 397.507C225.787 397.507 222.267 401.032 222.267 405.38C222.267 409.728 225.787 413.253 230.128 413.253Z" fill="#444444"/>
<path d="M230.128 414.507C233.8 414.507 236.777 411.525 236.777 407.847C236.777 404.169 233.8 401.187 230.128 401.187C226.455 401.187 223.478 404.169 223.478 407.847C223.478 411.525 226.455 414.507 230.128 414.507Z" fill="#BE7C5E"/>
<path opacity="0.05" d="M224.77 401.247L226.447 403.3C226.447 403.3 233.815 403.967 234.654 402.273C235.492 400.58 229.801 399.373 229.801 399.373L224.77 401.247Z" fill="black"/>
<path d="M224.77 401.06L226.447 403.113C226.447 403.113 233.815 403.78 234.654 402.087C235.492 400.393 229.801 399.187 229.801 399.187L224.77 401.06Z" fill="#444444"/>
<path d="M223.465 408.253C223.723 408.253 223.931 407.877 223.931 407.413C223.931 406.949 223.723 406.573 223.465 406.573C223.208 406.573 222.999 406.949 222.999 407.413C222.999 407.877 223.208 408.253 223.465 408.253Z" fill="#BE7C5E"/>
<path d="M236.804 408.253C237.061 408.253 237.27 407.877 237.27 407.413C237.27 406.949 237.061 406.573 236.804 406.573C236.546 406.573 236.338 406.949 236.338 407.413C236.338 407.877 236.546 408.253 236.804 408.253Z" fill="#BE7C5E"/>
<path d="M224.929 398.06C225.45 397.395 226.168 396.911 226.979 396.68C228.45 396.093 229.981 395.493 231.559 395.6C231.712 395.598 231.863 395.642 231.991 395.727C232.097 395.839 232.185 395.967 232.251 396.107C232.73 396.82 234.075 396.773 234.248 397.613C234.294 397.887 234.181 398.18 234.248 398.447C234.421 399.113 235.359 399.047 235.912 399.427C236.206 399.693 236.385 400.063 236.409 400.459C236.434 400.856 236.303 401.246 236.045 401.547C235.497 402.129 234.788 402.533 234.008 402.707C232.64 403.232 231.153 403.363 229.715 403.087C227.698 402.56 222.979 401.253 224.929 398.06Z" fill="#444444"/>
<path d="M199.824 387.2H141.292V448.76H199.824V387.2Z" fill="url(#paint14_linear)"/>
<path d="M197.281 389.88H143.834V446.087H197.281V389.88Z" fill="#27BBB1"/>
<path opacity="0.5" d="M175.104 414.88L174.438 414.64L174.398 414.7H174.358V412.887C174.358 412.663 174.34 412.44 174.305 412.22C175.383 411.425 176.209 410.335 176.681 409.08C177.613 407.87 178.188 406.422 178.341 404.901C178.493 403.38 178.217 401.847 177.544 400.475C176.871 399.103 175.827 397.948 174.532 397.14C173.237 396.332 171.741 395.904 170.215 395.904C168.689 395.904 167.193 396.332 165.898 397.14C164.602 397.948 163.559 399.103 162.886 400.475C162.213 401.847 161.937 403.38 162.089 404.901C162.242 406.422 162.817 407.87 163.749 409.08C164.221 410.335 165.047 411.425 166.125 412.22C166.089 412.44 166.072 412.663 166.072 412.887V414.887C162.5 415.874 159.35 418.008 157.106 420.961C154.861 423.914 153.646 427.522 153.645 431.233V446.107H187.49V431.207C187.488 427.504 186.276 423.904 184.039 420.956C181.803 418.008 178.665 415.874 175.104 414.88Z" fill="url(#paint15_linear)"/>
<path d="M169.526 414.507H171.589C173.594 414.507 175.578 414.902 177.43 415.67C179.282 416.438 180.964 417.564 182.381 418.984C183.798 420.403 184.923 422.089 185.69 423.943C186.457 425.798 186.851 427.786 186.851 429.793V445.127H154.237V429.793C154.237 427.784 154.633 425.794 155.402 423.937C156.17 422.081 157.297 420.394 158.717 418.975C160.137 417.555 161.823 416.429 163.677 415.663C165.532 414.896 167.52 414.503 169.526 414.507V414.507Z" fill="#504F60"/>
<path d="M170.478 409.18H169.978C167.913 409.18 166.238 410.857 166.238 412.927V415.427C166.238 417.496 167.913 419.173 169.978 419.173H170.478C172.544 419.173 174.218 417.496 174.218 415.427V412.927C174.218 410.857 172.544 409.18 170.478 409.18Z" fill="#FDA57D"/>
<path opacity="0.1" d="M160.387 426.74C160.387 426.74 158.803 442.533 159.828 443.56Z" fill="black"/>
<path opacity="0.1" d="M179.982 426.74C179.982 426.74 181.567 442.533 180.542 443.56Z" fill="black"/>
<path opacity="0.05" d="M170.225 414C171.642 414 173.023 413.547 174.165 412.707C174.015 411.768 173.536 410.914 172.814 410.297C172.092 409.68 171.174 409.341 170.225 409.34V409.34C169.276 409.341 168.358 409.68 167.636 410.297C166.914 410.914 166.435 411.768 166.285 412.707C167.427 413.547 168.808 414 170.225 414V414Z" fill="black"/>
<path d="M170.225 412.587C174.566 412.587 178.085 409.062 178.085 404.713C178.085 400.365 174.566 396.84 170.225 396.84C165.883 396.84 162.364 400.365 162.364 404.713C162.364 409.062 165.883 412.587 170.225 412.587Z" fill="#444444"/>
<path d="M170.225 413.84C173.897 413.84 176.874 410.858 176.874 407.18C176.874 403.502 173.897 400.52 170.225 400.52C166.552 400.52 163.575 403.502 163.575 407.18C163.575 410.858 166.552 413.84 170.225 413.84Z" fill="#FDA57D"/>
<path opacity="0.05" d="M164.866 400.58L166.544 402.633C166.544 402.633 173.912 403.3 174.751 401.607C175.589 399.913 169.898 398.707 169.898 398.707L164.866 400.58Z" fill="black"/>
<path d="M164.866 400.393L166.544 402.447C166.544 402.447 173.912 403.113 174.751 401.42C175.589 399.727 169.898 398.52 169.898 398.52L164.866 400.393Z" fill="#444444"/>
<path d="M163.562 407.587C163.82 407.587 164.028 407.211 164.028 406.747C164.028 406.283 163.82 405.907 163.562 405.907C163.305 405.907 163.096 406.283 163.096 406.747C163.096 407.211 163.305 407.587 163.562 407.587Z" fill="#FDA57D"/>
<path d="M176.901 407.587C177.158 407.587 177.367 407.211 177.367 406.747C177.367 406.283 177.158 405.907 176.901 405.907C176.643 405.907 176.435 406.283 176.435 406.747C176.435 407.211 176.643 407.587 176.901 407.587Z" fill="#FDA57D"/>
<path d="M252.239 275.887H143.528V280.62H252.239V275.887Z" fill="white"/>
<path d="M252.239 285.353H143.528V290.087H252.239V285.353Z" fill="white"/>
<path d="M204.975 294.82H143.528V299.553H204.975V294.82Z" fill="white"/>
<path d="M233.336 304.293H143.528V309.027H233.336V304.293Z" fill="white"/>
<path d="M219.152 313.76H143.528V318.493H219.152V313.76Z" fill="white"/>
<path d="M252.239 323.227H143.528V327.96H252.239V323.227Z" fill="white"/>
<path d="M242.787 337.433H148.253V375.307H242.787V337.433Z" fill="white"/>
<path d="M165.606 404.667C165.941 404.072 166.22 403.447 166.438 402.8C166.791 402.034 167.349 401.38 168.05 400.911C168.751 400.442 169.567 400.176 170.41 400.143C171.252 400.11 172.087 400.311 172.823 400.723C173.558 401.136 174.165 401.744 174.578 402.48C175.123 403.46 175.303 404.62 175.909 405.567C175.995 405.631 176.093 405.677 176.198 405.702C176.302 405.727 176.411 405.729 176.516 405.71C176.622 405.69 176.723 405.649 176.812 405.589C176.901 405.529 176.976 405.451 177.034 405.36C177.139 405.168 177.2 404.954 177.213 404.735C177.225 404.516 177.189 404.297 177.107 404.093C176.967 403.68 176.734 403.3 176.581 402.893C176.428 402.231 176.205 401.588 175.916 400.973C175.56 400.508 175.105 400.128 174.584 399.86C173.113 398.953 171.409 398.013 169.746 398.527C169.184 398.719 168.653 398.991 168.168 399.333L166.051 400.667C165.371 401.049 164.763 401.547 164.254 402.14C163.795 402.74 162.923 404.533 163.329 405.307C163.808 406.187 165.186 405.22 165.606 404.667Z" fill="#444444"/>
<path d="M168.554 418.667V445.153H172.461L171.882 418.667H168.554Z" fill="white"/>
<path d="M167.902 418.307L170.165 421.607L172.548 418.307H167.902Z" fill="#FDA57D"/>
</g>
<defs>
<linearGradient id="paint0_linear" x1="105.456" y1="314.456" x2="105.456" y2="132.583" gradientUnits="userSpaceOnUse">
<stop stop-color="#808080" stop-opacity="0.25"/>
<stop offset="0.54" stop-color="#808080" stop-opacity="0.12"/>
<stop offset="1" stop-color="#808080" stop-opacity="0.1"/>
</linearGradient>
<linearGradient id="paint1_linear" x1="6692.15" y1="18119.2" x2="6692.15" y2="15253.8" gradientUnits="userSpaceOnUse">
<stop stop-color="#808080" stop-opacity="0.25"/>
<stop offset="0.54" stop-color="#808080" stop-opacity="0.12"/>
<stop offset="1" stop-color="#808080" stop-opacity="0.1"/>
</linearGradient>
<linearGradient id="paint2_linear" x1="7797.8" y1="18369.4" x2="7797.8" y2="16213.3" gradientUnits="userSpaceOnUse">
<stop stop-color="#808080" stop-opacity="0.25"/>
<stop offset="0.54" stop-color="#808080" stop-opacity="0.12"/>
<stop offset="1" stop-color="#808080" stop-opacity="0.1"/>
</linearGradient>
<linearGradient id="paint3_linear" x1="173901" y1="9293.09" x2="173900" y2="9017.69" gradientUnits="userSpaceOnUse">
<stop stop-color="#808080" stop-opacity="0.25"/>
<stop offset="0.54" stop-color="#808080" stop-opacity="0.12"/>
<stop offset="1" stop-color="#808080" stop-opacity="0.1"/>
</linearGradient>
<linearGradient id="paint4_linear" x1="291352" y1="148726" x2="291352" y2="51469.9" gradientUnits="userSpaceOnUse">
<stop stop-color="#808080" stop-opacity="0.25"/>
<stop offset="0.54" stop-color="#808080" stop-opacity="0.12"/>
<stop offset="1" stop-color="#808080" stop-opacity="0.1"/>
</linearGradient>
<linearGradient id="paint5_linear" x1="47162.4" y1="15847.9" x2="47162.4" y2="10163.5" gradientUnits="userSpaceOnUse">
<stop stop-color="#808080" stop-opacity="0.25"/>
<stop offset="0.54" stop-color="#808080" stop-opacity="0.12"/>
<stop offset="1" stop-color="#808080" stop-opacity="0.1"/>
</linearGradient>
<linearGradient id="paint6_linear" x1="31355.7" y1="14326.1" x2="33075.1" y2="14326.1" gradientUnits="userSpaceOnUse">
<stop stop-color="#808080" stop-opacity="0.25"/>
<stop offset="0.54" stop-color="#808080" stop-opacity="0.12"/>
<stop offset="1" stop-color="#808080" stop-opacity="0.1"/>
</linearGradient>
<linearGradient id="paint7_linear" x1="47192.9" y1="22740.8" x2="47192.9" y2="17056.3" gradientUnits="userSpaceOnUse">
<stop stop-color="#808080" stop-opacity="0.25"/>
<stop offset="0.54" stop-color="#808080" stop-opacity="0.12"/>
<stop offset="1" stop-color="#808080" stop-opacity="0.1"/>
</linearGradient>
<linearGradient id="paint8_linear" x1="34341.2" y1="24742.3" x2="34341.2" y2="19979" gradientUnits="userSpaceOnUse">
<stop stop-color="#808080" stop-opacity="0.25"/>
<stop offset="0.54" stop-color="#808080" stop-opacity="0.12"/>
<stop offset="1" stop-color="#808080" stop-opacity="0.1"/>
</linearGradient>
<linearGradient id="paint9_linear" x1="1754.08" y1="3513.36" x2="1754.08" y2="0" gradientUnits="userSpaceOnUse">
<stop stop-color="#DBDBDB"/>
</linearGradient>
<linearGradient id="paint10_linear" x1="82485.1" y1="242406" x2="82312.2" y2="118784" gradientUnits="userSpaceOnUse">
<stop stop-color="#808080" stop-opacity="0.25"/>
<stop offset="0.54" stop-color="#808080" stop-opacity="0.12"/>
<stop offset="1" stop-color="#808080" stop-opacity="0.1"/>
</linearGradient>
<linearGradient id="paint11_linear" x1="202.302" y1="486.018" x2="201.964" y2="244.679" gradientUnits="userSpaceOnUse">
<stop stop-opacity="0.09"/>
<stop offset="0.55" stop-opacity="0.07"/>
<stop offset="1" stop-opacity="0.02"/>
</linearGradient>
<linearGradient id="paint12_linear" x1="20467.9" y1="41887.9" x2="20467.9" y2="36203.5" gradientUnits="userSpaceOnUse">
<stop stop-color="#808080" stop-opacity="0.25"/>
<stop offset="0.54" stop-color="#808080" stop-opacity="0.12"/>
<stop offset="1" stop-color="#808080" stop-opacity="0.1"/>
</linearGradient>
<linearGradient id="paint13_linear" x1="15870" y1="35613.6" x2="17591.1" y2="35613.6" gradientUnits="userSpaceOnUse">
<stop stop-color="#808080" stop-opacity="0.25"/>
<stop offset="0.54" stop-color="#808080" stop-opacity="0.12"/>
<stop offset="1" stop-color="#808080" stop-opacity="0.1"/>
</linearGradient>
<linearGradient id="paint14_linear" x1="15140.1" y1="41825.8" x2="15140.1" y2="36141.3" gradientUnits="userSpaceOnUse">
<stop stop-color="#808080" stop-opacity="0.25"/>
<stop offset="0.54" stop-color="#808080" stop-opacity="0.12"/>
<stop offset="1" stop-color="#808080" stop-opacity="0.1"/>
</linearGradient>
<linearGradient id="paint15_linear" x1="12764" y1="35562.7" x2="14485" y2="35562.7" gradientUnits="userSpaceOnUse">
<stop stop-color="#808080" stop-opacity="0.25"/>
<stop offset="0.54" stop-color="#808080" stop-opacity="0.12"/>
<stop offset="1" stop-color="#808080" stop-opacity="0.1"/>
</linearGradient>
<clipPath id="clip0">
<rect width="610" height="508" fill="white"/>
</clipPath>
</defs>
</svg>
